<?xml version="1.0" encoding="utf-8"?>
<!-- Generator: Adobe Illustrator 16.0.3, SVG Export Plug-In . SVG Version: 6.00 Build 0)  -->
<!DOCTYPE svg PUBLIC "-//W3C//DTD SVG 1.1//EN" "http://www.w3.org/Graphics/SVG/1.1/DTD/svg11.dtd">
<svg version="1.1" id="Capa_1" xmlns="http://www.w3.org/2000/svg" xmlns:xlink="http://www.w3.org/1999/xlink" x="0px" y="0px"
	 width="1000px" height="400px" viewBox="0 0 1000 400" enable-background="new 0 0 1000 400" xml:space="preserve">
<g>
	<path fill-rule="evenodd" clip-rule="evenodd" fill="#AC143D" d="M377.417,280.147c3.699,2.248,7.418,4.511,11.106,6.741
		c-21.819,41.633-76.609,82.148-145.601,74.835c-67.364-7.136-120.396-57.05-131.887-124.813
		c-10.933-64.478,22.146-124.882,71.762-152.803c1.495,3.254,2.963,6.458,4.284,9.331c-52.143,37.237-75.989,86.464-61.413,149.38
		c12.801,55.267,49.354,90.546,104.784,101.899C293.201,357.573,341.667,332.878,377.417,280.147z"/>
	<path fill-rule="evenodd" clip-rule="evenodd" fill="#AC143D" d="M218.916,65.251c19.666-5.025,38.186-5.889,56.817-3.292
		c29.299,4.079,55.359,15.586,77.659,35.155c3.093,2.714,5.411,3.467,8.793,0.555c3.471-2.987,7.417-5.418,11.985-8.685
		c-0.149,15.684-0.291,30.558-0.443,46.346c-14.763-4.509-28.954-8.845-44.219-13.504c6.454-4.939,11.866-9.087,18.4-14.091
		c-7.053-5.239-13.109-10.49-19.85-14.631c-30.589-18.797-63.639-25.387-99.052-18.603
		C221.203,75.996,222.931,68.858,218.916,65.251z"/>
	<path fill-rule="evenodd" clip-rule="evenodd" fill="#AC143D" d="M872.306,319.129c-1.357,4.377-2.057,8.851-4.062,12.636
		c-5.119,9.637-18.115,9.976-24.281,0.943c-5.137-7.517-5.189-19.622-0.138-27.182c6.281-9.397,19.489-8.915,24.631,1.183
		C870.345,310.435,871.002,314.781,872.306,319.129z M848.865,318.927c0.807,3.096,1.211,6.27,2.52,9.01
		c0.692,1.453,2.973,2.959,4.521,2.947c1.527-0.009,3.689-1.579,4.437-3.036c2.964-5.825,2.92-11.953-0.053-17.752
		c-0.741-1.441-2.957-2.957-4.479-2.936c-1.552,0.015-3.751,1.547-4.463,3.004C850.055,312.799,849.672,315.862,848.865,318.927z"/>
	<path fill-rule="evenodd" clip-rule="evenodd" fill="#AC143D" d="M830.85,300.28c-3.641,4.377-6.675,8.024-10.15,12.211
		c1.092-0.127,1.475-0.158,1.85-0.211c7.987-1.098,13.67,2.331,14.985,9.064c1.644,8.332-2.588,15.407-10.527,17.023
		c-2.884,0.585-6.053,0.774-8.906,0.214c-9.419-1.835-14.337-9.809-10.437-18.542c3.039-6.796,8.042-12.711,12.24-18.976
		c0.306-0.457,1.188-0.732,1.813-0.754C824.479,300.236,827.24,300.28,830.85,300.28z M815.546,325.075
		c-0.169,3.53,2.62,6.604,6.113,6.754c3.613,0.138,6.842-2.832,6.933-6.404c0.079-3.339-2.974-6.488-6.399-6.573
		C818.643,318.756,815.711,321.503,815.546,325.075z"/>
	<path fill-rule="evenodd" clip-rule="evenodd" fill="#AC143D" d="M788.144,319.844c0-1.797,0-3.409,0-5.295
		c2.803-0.229,5.354-1.198,4.908-4.453c-0.191-1.367-1.648-3.223-2.933-3.647c-3.036-0.996-4.658,1.104-5.449,3.822
		c-2.687,0-5.221,0-7.744,0c-0.618-5.894,6.002-12.493,14.689-11.295c10.718,1.479,13.119,11.391,6.9,18.224
		c5.354,4.6,6.865,9.509,4.521,14.672c-2.136,4.717-9.646,8.237-15.557,7.209c-4.945-0.858-9.075-3.087-11.524-7.638
		c-0.779-1.449-1.021-3.187-1.68-5.35c3.106,0,5.545-0.104,7.952,0.073c0.709,0.055,1.652,0.817,1.982,1.496
		c1.451,3.042,3.873,4.093,6.899,3.213c2.672-0.786,3.881-3.06,3.646-5.741c-0.286-3.313-2.464-4.835-5.701-4.951
		C788.842,320.178,788.63,320.033,788.144,319.844z"/>
	<path fill-rule="evenodd" clip-rule="evenodd" fill="#FFFFFF" d="M867.026,170.794c-0.541,1-1.347,1.946-1.58,3.008
		c-0.37,1.744,0.292,4.521-0.646,5.179c-2.485,1.713-5.556,3.381-8.46,3.533c-8.629,0.451-17.29,0.159-25.936,0.162
		c-4.489,0-4.701,0.193-4.701,4.76c-0.012,23.718,0.138,47.44-0.138,71.159c-0.043,4.241-0.435,9.245-5.269,11.449
		c-2.693,1.235-5.715,2.089-8.662,2.344c-4.41,0.387-8.899,0.402-13.293-0.016c-2.642-0.25-5.163-1.66-7.761-2.476
		c-3.021-0.943-3.106-3.891-4.525-5.915c-2.493-3.573-1.554-6.997-1.581-10.417c-0.153-21.614-0.096-43.23-0.036-64.85
		c0-1.425,0.588-2.851,1.075-5.067c-1.548-0.259-3.637-0.886-5.739-0.925c-7.131-0.127-14.265-0.23-21.378,0.031
		c-3.393,0.125-6.325-0.844-9.335-2.039c-3.796-1.499-4.325-4.968-4.691-8.204c-0.413-3.576-0.153-7.235-0.079-10.858
		c0.11-5.499,3.837-8.892,9.344-8.889c34.581,0.031,69.17,0.023,103.755,0.005c4.951-0.005,7.855,2.802,8.078,7.664
		c0.042,0.905,1.018,1.764,1.559,2.649C867.026,165.655,867.026,168.221,867.026,170.794z M805.688,154.82c0-0.003,0-0.012,0-0.016
		c-10.866,0-21.732-0.002-32.593,0.003c-6.187,0.004-12.382-0.07-18.567,0.075c-4.598,0.11-7.411,2.326-7.739,6.489
		c-0.313,4.042-0.012,8.149,0.159,12.219c0.132,3.129,2.109,4.849,4.972,5.546c1.908,0.464,3.891,0.88,5.842,0.912
		c7.239,0.106,14.48,0.021,21.72,0.042c6.192,0.019,7.92,1.744,7.92,7.919c0.012,23.946,0.012,47.885,0.005,71.836
		c0,4.982,1.496,7.379,6.515,8.328c4.862,0.917,9.871,1.324,14.811,1.34c3.404,0.011,6.858-0.858,10.203-1.686
		c1.018-0.254,2.216-1.557,2.509-2.596c0.757-2.779,1.473-5.662,1.494-8.514c0.12-22.772,0.053-45.555,0.101-68.332
		c0.01-6.664,1.718-8.289,8.317-8.296c8.182-0.014,16.356,0.025,24.529-0.027c3.637-0.018,7.087-2.053,7.331-4.676
		c0.387-4.217,0.79-8.519,0.365-12.699c-0.731-6.99-1.982-7.847-9.181-7.854C838.159,154.802,821.923,154.82,805.688,154.82z"/>
	<path fill-rule="evenodd" clip-rule="evenodd" fill="#FFFFFF" d="M268.789,237.44c-1.622-1.55-3.117-3.241-4.881-4.582
		c-1.299-0.978-2.899-1.681-4.469-2.163c-2.502-0.766-5.064-1.4-7.646-1.823c-4.397-0.709-8.934-0.186-13.154-2.453
		c-2.009-1.08-4.675-0.922-7.039-1.321c-3.588-0.614-7.201-1.094-10.747-1.881c-2.489-0.556-4.927-1.389-7.299-2.332
		c-3.518-1.397-7.286-2.514-10.357-4.608c-5.744-3.928-11.669-7.458-14.604-14.761c-2.929-7.294-1.251-14.479-1.272-21.604
		c-0.01-3.326,3.319-6.897,5.698-9.914c2.182-2.767,4.85-5.358,7.799-7.257c4.358-2.815,8.959-5.516,13.822-7.205
		c4.688-1.635,10.18-1.119,14.706-3.005c5.942-2.484,11.789-0.776,17.638-1.304c3.822-0.349,7.729-0.354,11.555,0
		c4.538,0.409,9.028,1.335,13.533,2.097c3.676,0.622,7.384,1.145,10.996,2.064c2.746,0.692,5.431,1.782,8.012,2.975
		c3.189,1.475,6.294,3.147,9.318,4.938c0.729,0.432,1.417,1.708,1.35,2.536c-0.334,3.997-0.597,8.063-1.588,11.925
		c-0.41,1.603-2.446,2.925-3.97,4.073c-2.727,2.073-4.248,5.426-8.115,6.377c-3.133,0.768-5.858,1.428-8.876-0.224
		c-1.638-0.895-3.631-1.131-5.392-1.841c-2.332-0.943-4.595-2.053-6.883-3.096c-0.201-0.095-0.373-0.305-0.575-0.34
		c-3.403-0.524-6.8-1.036-10.209-1.531c-1.923-0.278-3.861-0.798-5.772-0.727c-5.179,0.204-10.479,0.096-15.483,1.204
		c-4.156,0.919-4.627,7.036-1.02,9.571c1.646,1.16,3.617,2.419,5.515,2.551c5.99,0.425,11.105,4.116,17.392,3.851
		c4.071-0.168,8.213,1.873,12.361,2.736c2.337,0.49,4.811,0.355,7.108,0.946c3.652,0.943,7.267,2.09,10.776,3.467
		c3.307,1.297,6.546,2.856,9.644,4.592c1.868,1.045,3.397,2.687,5.136,3.978c1.182,0.876,2.573,1.479,3.661,2.447
		c0.732,0.652,0.935,1.879,1.644,2.569c4.48,4.296,5.037,10.211,4.981,15.581c-0.071,6.267-0.483,12.701-4.705,18.422
		c-4.868,6.604-11.44,10.829-18.114,14.878c-3.472,2.11-8.036,2.343-11.987,3.753c-13.994,4.992-28.485,2.523-42.762,2.809
		c-4.161,0.085-8.359-1.813-12.555-2.746c-0.784-0.173-1.669,0.064-2.438-0.147c-3.278-0.89-6.522-1.897-9.793-2.826
		c-2.436-0.692-4.945-1.164-7.314-2.04c-3.342-1.239-6.648-2.608-9.831-4.208c-2.101-1.05-4.619-2.185-5.75-4.024
		c-1.196-1.934-0.98-4.742-1.354-7.171c-0.406-2.619,0.357-4.431,2.885-5.83c1.447-0.815,2.185-2.82,3.383-4.172
		c6.734-7.609,12.896-10.082,22.286-4.761c4.458,2.523,9.843,3.409,14.279,5.954c3.892,2.225,8.142,0.274,11.516,1.791
		c5.598,2.512,11.2,1.33,16.718,1.337c3.197,0.009,6.51-1.831,9.515-3.342C267.265,241.014,267.787,239.057,268.789,237.44z
		 M249.602,271.615c9.363,0.688,18.363-0.808,27.46-3.229c6.964-1.861,13.497-4.267,19.271-8.391
		c7.031-5.026,11.602-11.594,12.924-20.587c1.431-9.74-1.026-17.889-8.444-23.972c-3.922-3.212-8.997-5.037-13.6-7.403
		c-8.158-4.204-17.12-5.5-25.992-7.258c-8.613-1.705-17.18-3.741-25.655-6.022c-3.045-0.818-6.09-2.372-6.827-6.205
		c-0.827-4.279,1.417-7.339,4.686-8.899c3.021-1.439,6.729-1.85,10.151-1.951c12.832-0.384,24.74,3.696,36.486,8.248
		c3.612,1.398,7.121,1.257,9.915-1.126c3.162-2.699,6.011-5.892,8.492-9.231c3.071-4.151,1.211-10.705-3.252-12.753
		c-13.628-6.255-28.146-8.639-42.943-9.328c-8.566-0.396-17.124-0.444-25.679,1.703c-6.652,1.673-13.45,2.651-19.403,6.308
		c-8.989,5.518-17.46,11.553-17.831,23.532c-0.141,4.647-0.307,9.435,0.622,13.936c1.281,6.177,6.154,10.24,11.28,13.138
		c6.915,3.909,14.132,7.346,22.257,8.568c6.509,0.979,12.875,2.898,19.305,4.401c6.872,1.606,13.797,3.017,20.59,4.888
		c4.45,1.227,6.666,4.778,6.383,8.907c-0.263,3.754-2.323,5.778-7.119,6.923c-1.919,0.456-3.865,1.214-5.777,1.154
		c-5.903-0.159-11.797-0.879-17.697-0.983c-9.813-0.171-18.425-4.173-27.06-8.102c-4.606-2.096-9.229-3.996-13.68-0.189
		c-3.588,3.063-7.188,6.286-9.969,10.05c-2.504,3.387-1.558,8.194,1.936,10.156c5.115,2.865,10.574,5.273,16.134,7.165
		c4.879,1.66,10.077,2.454,15.176,3.398c6.345,1.177,12.708,2.252,19.103,3.095C243.717,271.932,246.675,271.615,249.602,271.615z"
		/>
	<path fill-rule="evenodd" clip-rule="evenodd" fill="#FFFFFF" d="M327.041,195.239c0-11.218,0-22.441,0-33.664
		c-0.003-4.788,2.656-7.565,7.291-8.927c6.25-1.84,12.607-1.789,18.897-1.342c3.644,0.26,7.264,1.877,10.701,3.325
		c1.127,0.473,1.882,2.238,2.45,3.561c3.975,9.228,1.499,18.929,1.832,28.4c0.437,12.646,0.322,25.324-0.017,37.977
		c-0.12,4.577,2.25,7.517,4.89,10.317c4.815,5.114,10.717,7.526,18.031,6.901c5.029-0.43,10.351,0.461,14.344-3.339
		c2.293-2.168,6.693-2.421,6.647-6.845c5.274-3.808,3.671-9.691,3.774-14.628c0.393-18.689,0.284-37.394,0.048-56.092
		c-0.045-3.625,1.497-5.733,4.26-6.916c3.105-1.319,6.475-2.288,9.819-2.716c3.566-0.459,7.439-0.845,10.806,0.08
		c4.654,1.28,10.28,0.424,13.699,5c0.827,1.105,1.62,2.59,1.621,3.913c0.105,21.851,0.485,43.718-0.238,65.544
		c-0.167,5.093-0.441,11.03-4.291,15.78c-1.82,2.25-1.572,6.268-3.503,8.312c-4.157,4.411-6.366,10.704-12.964,12.903
		c-3.568,1.187-6.6,3.907-10.08,5.471c-2.829,1.26-5.949,1.896-8.967,2.682c-3.97,1.018-7.966,1.939-11.96,2.835
		c-0.904,0.207-1.858,0.196-2.786,0.196c-6.779,0.011-13.617,0.595-20.316-0.138c-8.061-0.88-16.3-1.632-23.598-5.905
		c-1.112-0.647-2.78-0.344-3.9-0.985c-6.748-3.854-13.687-7.982-17.625-14.672c-2.987-5.057-6.145-10.241-7.625-16.345
		c-1.662-6.847-0.97-13.574-1.173-20.353c-0.205-6.772-0.048-13.553-0.048-20.33C327.057,195.239,327.049,195.239,327.041,195.239z
		 M329.403,194.583c-0.111,0-0.214,0-0.323,0c0,7.593,0.154,15.184-0.037,22.766c-0.228,8.694,1.15,17.202,4.227,25.176
		c3.584,9.276,10.365,16.41,19.246,20.854c5.514,2.755,11.642,4.419,17.633,6.057c4.3,1.167,8.836,2.01,13.273,2.053
		c8.458,0.067,16.986,1.08,25.347-1.697c4.787-1.585,10.208-1.496,14.779-3.473c7.022-3.046,13.533-6.811,18.767-13.129
		c6.792-8.199,10.63-17.566,11.064-27.479c0.932-21.339,0.319-42.745,0.28-64.123c-0.01-2.824-1.325-5.043-4.266-5.639
		c-4.749-0.958-9.515-2.082-14.32-2.394c-3.129-0.207-6.363,0.809-9.523,1.422c-6.865,1.331-7.279,1.802-7.295,8.684
		c-0.038,18.695,0.09,37.385-0.08,56.075c-0.054,6.262-1.877,12.45-6.199,16.908c-5.242,5.414-11.859,8.277-19.915,8.321
		c-6.01,0.03-11.503-1.184-16.145-4.348c-5.049-3.445-9.636-7.994-10.148-14.731c-0.385-5.064-0.187-10.179-0.187-15.268
		c0-15.537,0.147-31.078-0.046-46.607c-0.043-3.393-0.757-6.871-4.957-8.33c-9.155-3.194-18.163-3.277-27.209,0.282
		c-2.663,1.045-4.072,2.559-4.026,5.681C329.491,172.623,329.403,183.605,329.403,194.583z"/>
	<path fill-rule="evenodd" clip-rule="evenodd" fill="#FFFFFF" d="M566.032,208.966c0.416-2.961,0.888-4.744,0.897-6.528
		c0.058-13.433,0.053-26.868,0.018-40.307c-0.014-4.278,4.313-9.555,9.422-9.516c4.979,0.04,10.015-1.595,14.942-1.264
		c4.092,0.281,8.186,2.065,12.043,3.727c2.57,1.1,3.511,3.546,3.5,6.611c-0.107,32.951-0.277,65.901,0.1,98.846
		c0.076,6.882-6.806,11.65-11.831,11.896c-5.133,0.255-10.278,0.015-15.418,0.068c-5.771,0.059-10.141-2.826-13.913-6.712
		c-4.034-4.159-7.822-8.554-11.72-12.848c-0.685-0.759-1.394-1.5-2.054-2.273c-1.667-1.961-2.296-4.918-5.467-5.46
		c-0.547-0.096-1.305-0.916-1.388-1.483c-0.811-5.524-6.583-6.963-9.066-11.187c-1.832-3.102-4.503-5.744-6.991-8.413
		c-3.191-3.413-6.531-6.683-9.907-9.912c-0.516-0.493-2.012-0.819-2.344-0.493c-1.014,1.008-2.334,2.336-2.392,3.592
		c-0.251,5.946-0.128,11.91-0.123,17.867c0.008,9.813-0.022,19.628,0.07,29.451c0.021,2.533-0.843,4.039-3.449,4.473
		c-0.561,0.097-0.982,0.827-1.555,1.061c-2.031,0.827-4.059,2.079-6.151,2.221c-4.888,0.329-9.813,0.08-14.717,0.11
		c-3.714,0.021-6.878-1.37-9.838-3.48c-1.863-1.343-2.242-3.022-2.241-5.232c0.072-34.581,0.057-69.165,0.052-103.748
		c0-2.78,3.508-6.625,6.143-7.382c6.809-1.951,13.793-1.918,20.638-1.317c4.697,0.418,9.771,1.097,13.343,5.228
		c2.981,3.455,6.619,6.168,8.535,10.723c1.082,2.576,4.532,4.124,6.809,6.242c2.38,2.205,5.325,4.16,6.811,6.89
		c4.229,7.762,12.214,12.056,16.992,19.26c1.563,2.366,3.721,4.369,5.78,6.365C562.604,207.049,564.019,207.675,566.032,208.966z
		 M604.552,212.128c0-15.897,0.016-31.788-0.014-47.682c-0.007-4.815-1.61-7.415-5.363-8.798
		c-7.915-2.921-15.881-3.038-23.854-0.272c-4.714,1.635-5.555,2.826-5.572,8.018c-0.04,9.933-0.018,19.871-0.021,29.803
		c0,3.619,0.404,7.301-0.136,10.844c-0.332,2.131-1.67,4.699-3.373,5.875c-1.948,1.34-4.413,0.292-6.141-1.748
		c-1.945-2.301-4.105-4.413-6.118-6.652c-6.181-6.915-12.329-13.847-18.504-20.767c-5.318-5.958-10.784-11.788-15.935-17.887
		c-4.202-4.982-9.195-8.775-15.688-9.239c-6.08-0.427-12.17-0.603-18.346,1.092c-5.194,1.424-7.539,4.446-7.64,10.367
		c-0.098,5.609-0.019,11.218-0.019,16.83c0.005,25.476-0.012,50.955,0.026,76.429c0.007,7.094,2.809,10.76,9.058,11.157
		c5.701,0.365,11.457,0.285,17.172,0.012c5.305-0.25,8.152-3.585,8.155-8.815c0.011-6.773,0.011-13.559,0.011-20.333
		c0-3.886-0.127-7.779,0.041-11.656c0.198-4.635,0.45-9.286,1.066-13.885c0.4-2.995,3.418-4.243,6.084-2.775
		c1.311,0.719,2.582,1.63,3.606,2.709c5.488,5.778,10.904,11.625,16.309,17.471c1.89,2.035,3.69,4.155,5.506,6.261
		c3.772,4.355,7.468,8.783,11.316,13.082c3.772,4.22,7.856,8.177,11.502,12.51c2.899,3.45,6.548,5.23,10.811,5.474
		c5.321,0.298,10.699,0.388,16.001-0.026c5.996-0.465,10.258-3.737,10.141-10.42C604.358,243.453,604.541,227.785,604.552,212.128z"
		/>
	<path fill-rule="evenodd" clip-rule="evenodd" fill="#FFFFFF" d="M621.304,266.743c0-2.911-0.135-6.166,0.073-9.409
		c0.072-1.065,1.094-2.045,1.576-3.118c2.47-5.453,4.829-10.956,7.379-16.367c1.944-4.146,4.084-8.192,6.198-12.253
		c0.485-0.918,1.362-1.631,1.843-2.552c2.735-5.266,5.485-10.524,8.074-15.858c1.951-4.009,3.583-8.172,5.508-12.197
		c1.457-3.049,3.277-5.932,4.717-8.989c2.031-4.324,3.661-8.84,5.836-13.088c2.149-4.198,4.741-8.166,7.187-12.213
		c1.365-2.255,2.487-4.804,4.324-6.612c2.213-2.183,5.165-2.992,8.499-3.028c3.991-0.034,7.978-1.277,11.964-1.259
		c4.336,0.015,8.904,0.194,12.938,1.577c3.717,1.272,6.95,4.121,8.762,8.005c2.089,4.463,4.15,8.938,6.276,13.382
		c3.154,6.623,6.349,13.225,9.529,19.832c1.856,3.864,3.616,7.771,5.608,11.572c3.7,7.072,7.624,14.026,11.27,21.133
		c1.623,3.163,2.841,6.541,4.125,9.863c1.177,3.035,1.981,6.237,3.381,9.158c0.916,1.902,3.064,3.243,3.87,5.168
		c1.775,4.251,4.802,7.871,4.537,13.188c-0.197,4.002-2.514,5.969-4.761,7.833c-1.738,1.443-4.713,1.762-7.177,1.899
		c-5.004,0.264-10.044-0.106-15.053,0.137c-3.096,0.159-5.599-1.071-8.36-2.051c-4.554-1.606-5.423-5.508-6.98-9.165
		c-1.229-2.841-2.501-5.714-4.235-8.257c-0.806-1.184-2.729-2.265-4.161-2.28c-14.715-0.165-29.428,0.012-44.143-0.169
		c-3.875-0.054-3.951,3.147-5.306,5.173c-1.389,2.078-2.191,4.532-3.301,6.795c-1.899,3.86-3.635,7.865-8.437,9.017
		c-1.053,0.255-2.092,0.822-3.14,0.844c-5.838,0.079-11.716,0.418-17.497-0.139c-2.642-0.254-5.114-2.332-7.639-3.631
		C623.576,268.168,622.611,267.522,621.304,266.743z M693.289,151.543c-3.174,0.521-6.021,1.149-8.899,1.433
		c-6.723,0.66-11.885,3.146-13.309,10.479c-0.066,0.326-0.34,0.605-0.503,0.915c-3.67,7.201-7.356,14.393-11.021,21.604
		c-1.043,2.054-1.982,4.164-3.044,6.204c-3.676,7.113-7.508,14.154-11.052,21.331c-3.787,7.668-7.257,15.5-10.975,23.201
		c-3.278,6.784-6.771,13.469-10.061,20.242c-3.044,6.268,0.503,12.33,7.496,12.606c5.665,0.226,11.383,0.366,17.027-0.087
		c3.189-0.259,6.748-0.837,8.391-4.589c1.758-4.019,3.572-8.031,5.649-11.896c1.469-2.724,3.687-4.897,7.099-4.912
		c14.481-0.049,28.967-0.079,43.444,0.025c3.142,0.021,5.903,1.209,7.409,4.368c1.644,3.467,3.959,6.727,4.978,10.358
		c1.499,5.379,5.835,6.207,9.928,6.635c5.729,0.595,11.581,0.335,17.364,0.09c7.051-0.296,10.982-6.917,7.915-13.086
		c-5.144-10.342-10.359-20.638-15.58-30.939c-2.89-5.677-5.969-11.256-8.745-16.98c-4.475-9.181-8.736-18.455-13.146-27.659
		c-3.26-6.809-6.535-13.604-9.985-20.312c-0.869-1.699-2.237-3.269-3.705-4.511C705.051,151.895,698.637,153.397,693.289,151.543z"
		/>
	<path fill-rule="evenodd" clip-rule="evenodd" fill="#125EA6" d="M805.688,154.82c16.235,0,32.472-0.018,48.712,0.014
		c7.198,0.008,8.449,0.864,9.181,7.854c0.425,4.18,0.021,8.481-0.365,12.699c-0.244,2.623-3.694,4.658-7.331,4.676
		c-8.173,0.052-16.348,0.014-24.529,0.027c-6.6,0.007-8.308,1.632-8.317,8.296c-0.048,22.777,0.02,45.56-0.101,68.332
		c-0.021,2.852-0.737,5.734-1.494,8.514c-0.293,1.039-1.491,2.342-2.509,2.596c-3.345,0.827-6.799,1.696-10.203,1.686
		c-4.939-0.016-9.948-0.423-14.811-1.34c-5.019-0.949-6.515-3.346-6.515-8.328c0.007-23.951,0.007-47.89-0.005-71.836
		c0-6.175-1.728-7.9-7.92-7.919c-7.239-0.021-14.48,0.064-21.72-0.042c-1.951-0.031-3.934-0.448-5.842-0.912
		c-2.862-0.697-4.84-2.417-4.972-5.546c-0.171-4.069-0.472-8.176-0.159-12.219c0.328-4.163,3.142-6.379,7.739-6.489
		c6.186-0.146,12.381-0.071,18.567-0.075c10.86-0.006,21.727-0.003,32.593-0.003C805.688,154.808,805.688,154.817,805.688,154.82z"
		/>
	<path fill-rule="evenodd" clip-rule="evenodd" fill="#125EA6" d="M249.602,271.615c-2.926,0-5.884,0.316-8.757-0.061
		c-6.395-0.843-12.758-1.918-19.103-3.095c-5.099-0.944-10.297-1.738-15.176-3.398c-5.56-1.892-11.02-4.3-16.134-7.165
		c-3.493-1.962-4.439-6.77-1.936-10.156c2.781-3.764,6.38-6.987,9.969-10.05c4.452-3.807,9.074-1.906,13.68,0.189
		c8.635,3.929,17.246,7.931,27.06,8.102c5.9,0.104,11.794,0.824,17.697,0.983c1.913,0.06,3.858-0.698,5.777-1.154
		c4.796-1.145,6.855-3.169,7.119-6.923c0.283-4.129-1.933-7.681-6.383-8.907c-6.792-1.871-13.718-3.281-20.59-4.888
		c-6.429-1.503-12.795-3.422-19.305-4.401c-8.125-1.223-15.342-4.659-22.257-8.568c-5.125-2.897-9.999-6.961-11.28-13.138
		c-0.929-4.501-0.763-9.289-0.622-13.936c0.371-11.979,8.842-18.014,17.831-23.532c5.953-3.657,12.75-4.635,19.403-6.308
		c8.555-2.146,17.113-2.099,25.679-1.703c14.796,0.688,29.315,3.072,42.943,9.328c4.463,2.049,6.323,8.603,3.252,12.753
		c-2.48,3.34-5.33,6.533-8.492,9.231c-2.793,2.383-6.303,2.524-9.915,1.126c-11.746-4.551-23.654-8.631-36.486-8.248
		c-3.422,0.101-7.13,0.511-10.151,1.951c-3.268,1.561-5.513,4.62-4.686,8.899c0.737,3.833,3.782,5.387,6.827,6.205
		c8.475,2.281,17.042,4.317,25.655,6.022c8.873,1.758,17.834,3.054,25.992,7.258c4.603,2.366,9.678,4.191,13.6,7.403
		c7.418,6.083,9.875,14.231,8.444,23.972c-1.322,8.993-5.893,15.561-12.924,20.587c-5.775,4.124-12.307,6.529-19.271,8.391
		C267.965,270.808,258.965,272.303,249.602,271.615z"/>
	<path fill-rule="evenodd" clip-rule="evenodd" fill="#125EA6" d="M329.403,194.583c0-10.978,0.087-21.96-0.06-32.94
		c-0.046-3.122,1.363-4.636,4.026-5.681c9.046-3.559,18.055-3.476,27.209-0.282c4.2,1.458,4.914,4.937,4.957,8.33
		c0.193,15.529,0.046,31.07,0.046,46.607c0,5.089-0.198,10.203,0.187,15.268c0.512,6.737,5.1,11.286,10.148,14.731
		c4.642,3.164,10.135,4.378,16.145,4.348c8.056-0.044,14.673-2.907,19.915-8.321c4.321-4.458,6.145-10.646,6.199-16.908
		c0.17-18.69,0.042-37.38,0.08-56.075c0.016-6.882,0.43-7.353,7.295-8.684c3.16-0.613,6.394-1.629,9.523-1.422
		c4.805,0.313,9.571,1.437,14.32,2.394c2.941,0.596,4.256,2.815,4.266,5.639c0.039,21.378,0.652,42.784-0.28,64.123
		c-0.434,9.913-4.272,19.28-11.064,27.479c-5.234,6.318-11.745,10.083-18.767,13.129c-4.57,1.977-9.992,1.888-14.779,3.473
		c-8.361,2.777-16.889,1.765-25.347,1.697c-4.437-0.043-8.974-0.886-13.273-2.053c-5.991-1.638-12.119-3.302-17.633-6.057
		c-8.881-4.443-15.662-11.577-19.246-20.854c-3.076-7.974-4.454-16.481-4.227-25.176c0.191-7.582,0.037-15.173,0.037-22.766
		C329.189,194.583,329.292,194.583,329.403,194.583z"/>
	<path fill-rule="evenodd" clip-rule="evenodd" fill="#125EA6" d="M604.546,212.128c-0.005,15.657-0.188,31.325,0.088,46.977
		c0.117,6.683-4.145,9.955-10.141,10.42c-5.302,0.414-10.68,0.324-16.001,0.026c-4.263-0.243-7.911-2.023-10.811-5.474
		c-3.646-4.333-7.729-8.29-11.502-12.51c-3.849-4.299-7.544-8.727-11.316-13.082c-1.815-2.105-3.616-4.226-5.506-6.261
		c-5.404-5.846-10.82-11.692-16.309-17.471c-1.024-1.079-2.296-1.99-3.606-2.709c-2.666-1.468-5.684-0.22-6.084,2.775
		c-0.616,4.599-0.868,9.25-1.066,13.885c-0.168,3.877-0.041,7.771-0.041,11.656c0,6.774,0,13.56-0.011,20.333
		c-0.003,5.23-2.851,8.565-8.155,8.815c-5.715,0.273-11.471,0.354-17.172-0.012c-6.249-0.397-9.051-4.063-9.058-11.157
		c-0.038-25.475-0.021-50.953-0.026-76.429c0-5.612-0.079-11.221,0.019-16.83c0.101-5.921,2.445-8.943,7.64-10.367
		c6.176-1.694,12.266-1.519,18.346-1.092c6.493,0.463,11.486,4.256,15.688,9.239c5.15,6.099,10.616,11.929,15.935,17.887
		c6.175,6.92,12.323,13.852,18.504,20.767c2.013,2.239,4.173,4.352,6.118,6.652c1.728,2.04,4.192,3.088,6.141,1.748
		c1.703-1.176,3.041-3.744,3.373-5.875c0.54-3.543,0.136-7.225,0.136-10.844c0.004-9.933-0.019-19.871,0.021-29.803
		c0.018-5.191,0.858-6.383,5.572-8.018c7.973-2.766,15.938-2.649,23.854,0.272c3.753,1.383,5.356,3.983,5.363,8.798
		C604.567,180.34,604.552,196.23,604.546,212.128z"/>
	<path fill-rule="evenodd" clip-rule="evenodd" fill="#125EA6" d="M693.289,151.543c5.348,1.854,11.762,0.352,16.677,4.521
		c1.468,1.242,2.836,2.812,3.705,4.511c3.45,6.708,6.726,13.503,9.985,20.312c4.409,9.204,8.671,18.478,13.146,27.659
		c2.776,5.725,5.855,11.304,8.745,16.98c5.221,10.302,10.437,20.598,15.58,30.939c3.067,6.169-0.864,12.79-7.915,13.086
		c-5.783,0.245-11.635,0.505-17.364-0.09c-4.093-0.428-8.429-1.256-9.928-6.635c-1.019-3.632-3.334-6.892-4.978-10.358
		c-1.506-3.159-4.268-4.347-7.409-4.368c-14.478-0.104-28.963-0.074-43.444-0.025c-3.412,0.015-5.63,2.188-7.099,4.912
		c-2.077,3.864-3.892,7.877-5.649,11.896c-1.643,3.752-5.201,4.33-8.391,4.589c-5.645,0.453-11.362,0.313-17.027,0.087
		c-6.993-0.276-10.54-6.339-7.496-12.606c3.289-6.773,6.782-13.458,10.061-20.242c3.718-7.701,7.188-15.533,10.975-23.201
		c3.544-7.177,7.376-14.218,11.052-21.331c1.062-2.04,2.001-4.15,3.044-6.204c3.664-7.21,7.351-14.403,11.021-21.604
		c0.163-0.31,0.437-0.589,0.503-0.915c1.424-7.333,6.586-9.819,13.309-10.479C687.268,152.692,690.115,152.064,693.289,151.543z
		 M692.468,225.635c0,0.055,0,0.113,0,0.167c2.921,0,5.841,0.1,8.757-0.025c3.349-0.151,6.296-3.46,5.226-5.997
		c-2.884-6.831-5.745-13.691-9.137-20.27c-0.871-1.659-3.669-3.051-5.651-3.153c-1.501-0.074-3.731,1.784-4.563,3.348
		c-2.985,5.636-5.582,11.489-8.195,17.313c-2.262,5.026-0.313,8.256,5.168,8.586C686.86,225.776,689.668,225.635,692.468,225.635z"
		/>
	<path fill-rule="evenodd" clip-rule="evenodd" fill="#FFFFFF" d="M692.468,225.635c-2.8,0-5.607,0.142-8.396-0.031
		c-5.48-0.33-7.43-3.56-5.168-8.586c2.613-5.824,5.21-11.678,8.195-17.313c0.832-1.563,3.063-3.422,4.563-3.348
		c1.982,0.103,4.78,1.494,5.651,3.153c3.392,6.578,6.253,13.438,9.137,20.27c1.07,2.537-1.877,5.846-5.226,5.997
		c-2.916,0.125-5.836,0.025-8.757,0.025C692.468,225.748,692.468,225.689,692.468,225.635z M704.123,220.881
		c-0.938-2.655-1.727-5.117-2.677-7.515c-0.472-1.177-1.282-2.22-1.877-3.356c-1.886-3.639-3.546-7.409-5.682-10.891
		c-1.182-1.918-2.969-1.884-4.019,0.503c-2.013,4.558-3.54,9.426-6.168,13.595c-2.057,3.255-2.99,6.202-2.232,10.061
		c5.903,0,11.612-0.146,17.317,0.062C701.293,223.428,703.143,222.916,704.123,220.881z"/>
	<path fill-rule="evenodd" clip-rule="evenodd" fill="#AC143D" d="M875.094,287.24c0,3.509-2.841,6.35-6.351,6.35
		c-3.508,0-6.35-2.841-6.35-6.35c0-3.511,2.842-6.352,6.35-6.352C872.253,280.889,875.094,283.729,875.094,287.24z"/>
</g>
</svg>
